<svg width="7" height="12" viewBox="0 0 7 12" fill="none" xmlns="http://www.w3.org/2000/svg">
<path d="M4.82209 5.99535L0.251156 1.49215C0.0779985 1.32156 -0.00562222 1.11556 0.000293103 0.874151C0.00620842 0.632744 0.0958345 0.426744 0.269171 0.256152C0.442508 0.0853838 0.654653 0 0.905606 0C1.15656 0 1.36861 0.0853838 1.54177 0.256152L6.74026 5.37735C6.8358 5.47148 6.90302 5.56861 6.94192 5.66874C6.98064 5.76887 7 5.87774 7 5.99535C7 6.11314 6.98064 6.2221 6.94192 6.32223C6.90302 6.42219 6.8358 6.51931 6.74026 6.61362L1.52403 11.7526C1.35069 11.9232 1.1415 12.0055 0.896464 11.9997C0.651605 11.9939 0.442508 11.9056 0.269171 11.7348C0.0958345 11.564 0.00916572 11.355 0.00916572 11.1078C0.00916572 10.8606 0.0958345 10.6517 0.269171 10.4811L4.82209 5.99535Z" fill="#474746"/>
</svg>
