<svg width="7" height="12" viewBox="0 0 7 12" fill="none" xmlns="http://www.w3.org/2000/svg">
<path d="M2.17525 6.00873L6.74058 10.5087C6.91353 10.6793 6.99705 10.8853 6.99114 11.1265C6.98523 11.3675 6.89571 11.5734 6.72259 11.744C6.54946 11.9147 6.33758 12 6.08693 12C5.83629 12 5.62449 11.9147 5.45155 11.744L0.259418 6.62655C0.163993 6.53232 0.096856 6.43526 0.0580059 6.33538C0.0193348 6.23532 0 6.12644 0 6.00873C0 5.89121 0.0193348 5.78241 0.0580059 5.68236C0.096856 5.5823 0.163993 5.48524 0.259418 5.39119L5.46927 0.255966C5.64239 0.0853218 5.85428 0 6.10493 0C6.35557 0 6.56746 0.0853218 6.74058 0.255966C6.91353 0.426611 7 0.63546 7 0.882516C7 1.12957 6.91353 1.33833 6.74058 1.5088L2.17525 6.00873Z" fill="#474746"/>
</svg>
