<svg width="28" height="28" viewBox="0 0 28 28" fill="none" xmlns="http://www.w3.org/2000/svg">
<path d="M15.1666 14.3385L18.62 17.7915C18.8456 18.0172 18.9584 18.2888 18.9584 18.6063C18.9584 18.9237 18.8487 19.1978 18.6291 19.4288C18.3897 19.6596 18.1089 19.775 17.7867 19.775C17.4644 19.775 17.1861 19.6583 16.9516 19.425L13.1835 15.6565C13.0589 15.5322 12.9694 15.4002 12.915 15.2607C12.8606 15.1212 12.8335 14.9771 12.8335 14.8285V9.56655C12.8335 9.23615 12.9456 8.95907 13.1698 8.7353C13.3943 8.51177 13.6724 8.4 14.0042 8.4C14.3358 8.4 14.6124 8.51177 14.834 8.7353C15.0557 8.95907 15.1666 9.23615 15.1666 9.56655V14.3385ZM13.9958 5.36655C13.6642 5.36655 13.3876 5.25478 13.166 5.03125C12.9443 4.80772 12.8335 4.53063 12.8335 4.2V2.33345H15.1666V4.2C15.1666 4.53063 15.0544 4.80772 14.8302 5.03125C14.6057 5.25478 14.3276 5.36655 13.9958 5.36655ZM22.6334 13.9958C22.6334 13.6642 22.7452 13.3876 22.9688 13.166C23.1923 12.9443 23.4694 12.8334 23.8 12.8334H25.6666V15.1665H23.8C23.4694 15.1665 23.1923 15.0544 22.9688 14.8302C22.7452 14.6057 22.6334 14.3276 22.6334 13.9958ZM14.0042 22.6334C14.3358 22.6334 14.6124 22.7452 14.834 22.9688C15.0557 23.1923 15.1666 23.4694 15.1666 23.8V25.6666H12.8335V23.8C12.8335 23.4694 12.9456 23.1923 13.1698 22.9688C13.3943 22.7452 13.6724 22.6334 14.0042 22.6334ZM5.36655 14.0042C5.36655 14.3358 5.25478 14.6124 5.03125 14.834C4.80772 15.0557 4.53063 15.1665 4.2 15.1665H2.33345V12.8334H4.2C4.53063 12.8334 4.80772 12.9456 5.03125 13.1698C5.25478 13.3943 5.36655 13.6724 5.36655 14.0042ZM14.0063 28C12.0736 28 10.2575 27.6325 8.55785 26.8975C6.85825 26.1625 5.37448 25.1611 4.10655 23.8934C2.83885 22.6255 1.8375 21.1412 1.1025 19.4404C0.3675 17.7396 0 15.9223 0 13.9885C0 12.0546 0.3675 10.2372 1.1025 8.53615C1.8375 6.83538 2.83885 5.355 4.10655 4.095C5.37448 2.835 6.85883 1.8375 8.5596 1.1025C10.2604 0.3675 12.0777 0 14.0115 0C15.9454 0 17.7628 0.3675 19.4638 1.1025C21.1646 1.8375 22.645 2.835 23.905 4.095C25.165 5.355 26.1625 6.83667 26.8975 8.54C27.6325 10.2433 28 12.0612 28 13.9937C28 15.9264 27.6325 17.7425 26.8975 19.4421C26.1625 21.1417 25.165 22.624 23.905 23.8889C22.645 25.1538 21.1633 26.1553 19.46 26.8933C17.7567 27.6311 15.9388 28 14.0063 28ZM25.6666 13.9885C25.6666 10.7451 24.5364 7.99178 22.2761 5.72845C20.0156 3.46512 17.2569 2.33345 14 2.33345C10.7644 2.33345 8.01103 3.4636 5.74 5.7239C3.46897 7.98443 2.33345 10.7431 2.33345 14C2.33345 17.2356 3.46897 19.989 5.74 22.26C8.01103 24.531 10.7682 25.6666 14.0115 25.6666C17.2549 25.6666 20.0082 24.531 22.2716 22.26C24.5349 19.989 25.6666 17.2318 25.6666 13.9885Z" fill="#77827D"/>
</svg>
