<svg width="32" height="32" viewBox="0 0 32 32" fill="none" xmlns="http://www.w3.org/2000/svg">
<path d="M16 18.8537L3.44495 31.4087C3.05076 31.8029 2.57505 32 2.01781 32C1.46098 32 0.985465 31.8029 0.591279 31.4087C0.197093 31.0145 0 30.539 0 29.9822C0 29.425 0.197093 28.9492 0.591279 28.5551L13.1463 16L0.591279 3.44495C0.197093 3.05076 0 2.57505 0 2.01781C0 1.46098 0.197093 0.985464 0.591279 0.591278C0.985465 0.197092 1.46098 0 2.01781 0C2.57505 0 3.05076 0.197092 3.44495 0.591278L16 13.1463L28.5551 0.591278C28.9492 0.197092 29.425 0 29.9822 0C30.539 0 31.0145 0.197092 31.4087 0.591278C31.8029 0.985464 32 1.46098 32 2.01781C32 2.57505 31.8029 3.05076 31.4087 3.44495L18.8537 16L31.4087 28.5551C31.8029 28.9492 32 29.425 32 29.9822C32 30.539 31.8029 31.0145 31.4087 31.4087C31.0145 31.8029 30.539 32 29.9822 32C29.425 32 28.9492 31.8029 28.5551 31.4087L16 18.8537Z" fill="#889D8C"/>
</svg>
