<svg width="32" height="32" viewBox="0 0 32 32" fill="none" xmlns="http://www.w3.org/2000/svg">
<path d="M5.3665 32C4.44983 32 3.66517 31.7099 3.0125 31.1298C2.35983 30.5493 2.0335 29.8517 2.0335 29.0369V4.44444H1.6665C1.1945 4.44444 0.798667 4.30193 0.479 4.01689C0.159667 3.73215 0 3.37911 0 2.95778C0 2.53644 0.159667 2.18504 0.479 1.90356C0.798667 1.62207 1.1945 1.48133 1.6665 1.48133H9.6C9.6 1.05674 9.75967 0.703704 10.079 0.422222C10.3987 0.140741 10.7945 0 11.2665 0H20.7335C21.2055 0 21.6013 0.141927 21.921 0.425779C22.2403 0.709927 22.4 1.06178 22.4 1.48133H30.3335C30.8055 1.48133 31.2013 1.62385 31.521 1.90889C31.8403 2.19393 32 2.54696 32 2.968C32 3.38933 31.8403 3.74074 31.521 4.02222C31.2013 4.3037 30.8055 4.44444 30.3335 4.44444H29.9665V29.0369C29.9665 29.8517 29.6402 30.5493 28.9875 31.1298C28.3348 31.7099 27.5502 32 26.6335 32H5.3665ZM26.6335 4.44444H5.3665V29.0369H26.6335V4.44444ZM11.906 25.3036C12.3797 25.3036 12.7748 25.1616 13.0915 24.8778C13.4082 24.5939 13.5665 24.2421 13.5665 23.8222V9.62978C13.5665 9.20993 13.4063 8.85807 13.086 8.57422C12.7653 8.29007 12.368 8.148 11.894 8.148C11.4203 8.148 11.0252 8.29007 10.7085 8.57422C10.3918 8.85807 10.2335 9.20993 10.2335 9.62978V23.8222C10.2335 24.2421 10.3937 24.5939 10.714 24.8778C11.0347 25.1616 11.432 25.3036 11.906 25.3036ZM20.106 25.3036C20.5797 25.3036 20.9748 25.1616 21.2915 24.8778C21.6082 24.5939 21.7665 24.2421 21.7665 23.8222V9.62978C21.7665 9.20993 21.6063 8.85807 21.286 8.57422C20.9653 8.29007 20.568 8.148 20.094 8.148C19.6203 8.148 19.2252 8.29007 18.9085 8.57422C18.5918 8.85807 18.4335 9.20993 18.4335 9.62978V23.8222C18.4335 24.2421 18.5937 24.5939 18.914 24.8778C19.2347 25.1616 19.632 25.3036 20.106 25.3036Z" fill="#94E4A8"/>
</svg>
