<svg width="33" height="26" viewBox="0 0 33 26" fill="none" xmlns="http://www.w3.org/2000/svg">
<path d="M27.9222 2.09006C25.8321 1.11574 23.5692 0.408583 21.212 0C21.1705 0.000590409 21.131 0.0175357 21.102 0.0471445C20.8191 0.56573 20.4891 1.24146 20.2691 1.76005C17.7689 1.38313 15.2263 1.38313 12.726 1.76005C12.506 1.22575 12.176 0.56573 11.8774 0.0471445C11.8617 0.015715 11.8146 0 11.7674 0C9.41023 0.408583 7.16303 1.11574 5.05725 2.09006C5.04154 2.09006 5.02582 2.10577 5.01011 2.12149C0.735707 8.51738 -0.442897 14.7404 0.138547 20.9006C0.138547 20.932 0.154262 20.9634 0.185691 20.9791C3.01434 23.0535 5.73299 24.3107 8.4202 25.1435C8.46735 25.1593 8.51449 25.1435 8.53021 25.1121C9.15879 24.2478 9.72452 23.3364 10.2117 22.3778C10.2431 22.3149 10.2117 22.252 10.1488 22.2363C9.25308 21.8906 8.40449 21.482 7.57161 21.0106C7.50875 20.9791 7.50875 20.8849 7.55589 20.8377C7.72876 20.712 7.90162 20.5706 8.07448 20.4448C8.10591 20.4134 8.15305 20.4134 8.18448 20.4291C13.5903 22.8963 19.4205 22.8963 24.7635 20.4291C24.7949 20.4134 24.8421 20.4134 24.8735 20.4448C25.0464 20.5863 25.2192 20.712 25.3921 20.8534C25.455 20.9006 25.455 20.9949 25.3764 21.0263C24.5592 21.5134 23.6949 21.9063 22.7992 22.252C22.7363 22.2678 22.7206 22.3463 22.7363 22.3935C23.2392 23.3521 23.8049 24.2635 24.4178 25.1278C24.4649 25.1435 24.5121 25.1593 24.5592 25.1435C27.2621 24.3107 29.9808 23.0535 32.8094 20.9791C32.8409 20.9634 32.8566 20.932 32.8566 20.9006C33.548 13.7818 31.7094 7.60592 27.985 2.12149C27.9693 2.10577 27.9536 2.09006 27.9222 2.09006ZM11.0288 17.1448C9.41023 17.1448 8.05877 15.6519 8.05877 13.8132C8.05877 11.9746 9.3788 10.4817 11.0288 10.4817C12.6946 10.4817 14.0146 11.9903 13.9989 13.8132C13.9989 15.6519 12.6789 17.1448 11.0288 17.1448ZM21.982 17.1448C20.3634 17.1448 19.0119 15.6519 19.0119 13.8132C19.0119 11.9746 20.332 10.4817 21.982 10.4817C23.6478 10.4817 24.9678 11.9903 24.9521 13.8132C24.9521 15.6519 23.6478 17.1448 21.982 17.1448Z" fill="#94E4A8"/>
</svg>
