<svg width="32" height="32" viewBox="0 0 32 32" fill="none" xmlns="http://www.w3.org/2000/svg">
<path d="M2.96311 29.0341H5.11111L24.8889 9.26774L22.7409 7.11773L2.96311 26.8841V29.0341ZM1.48133 32C1.05674 32 0.703704 31.8591 0.422222 31.5774C0.140741 31.2956 0 30.9423 0 30.5173V26.9139C0 26.5183 0.078963 26.1351 0.236889 25.7644C0.395111 25.3937 0.607555 25.0749 0.874222 24.808L24.8591 0.845231C25.1359 0.578316 25.4544 0.370715 25.8147 0.222429C26.1753 0.0741431 26.553 0 26.948 0C27.3234 0 27.6938 0.0741431 28.0591 0.222429C28.4247 0.370715 28.7507 0.58321 29.0369 0.859912L31.1556 2.99523C31.4519 3.28202 31.6667 3.60825 31.8 3.97392C31.9333 4.33959 32 4.70542 32 5.07139C32 5.44685 31.9284 5.81994 31.7853 6.19065C31.6419 6.56137 31.432 6.88522 31.1556 7.16222L7.18533 31.125C6.91867 31.3919 6.60015 31.6045 6.22978 31.7629C5.85941 31.921 5.47659 32 5.08133 32H1.48133ZM23.8076 8.20008L22.7409 7.11773L24.8889 9.26774L23.8076 8.20008Z" fill="#94E4A8"/>
</svg>
