<svg width="600" height="120" viewBox="0 0 600 120" fill="none" xmlns="http://www.w3.org/2000/svg">
<g clip-path="url(#clip0_51_1273)">
<path d="M37.7958 68.9687V90H26.7139V36.7745H57.2093V46.0364H37.7958V59.7472H55.8342V68.9687H37.7958ZM85.4916 48.544C86.8937 48.544 88.134 48.6518 89.2125 48.8675L88.4036 59.2619C87.4869 59.0192 86.3949 58.8979 85.1276 58.8979C81.5684 58.8979 78.7912 59.8146 76.7959 61.6481C74.8276 63.4547 73.8435 66.0027 73.8435 69.2922V90H62.7616V49.3124H71.1741L72.7919 56.1476H73.3581C74.6524 53.8288 76.378 51.9818 78.5351 50.6067C80.6921 49.2315 83.011 48.544 85.4916 48.544ZM115.696 65.0455C115.669 62.3222 114.968 60.2056 113.593 58.6957C112.218 57.1857 110.344 56.4307 107.971 56.4307C105.625 56.4307 103.778 57.1857 102.43 58.6957C101.082 60.1786 100.313 62.2952 100.125 65.0455H115.696ZM123.825 87.8564C119.996 89.7708 115.224 90.728 109.508 90.728C102.956 90.728 97.8326 88.935 94.1387 85.3488C90.4717 81.7358 88.6382 76.5588 88.6382 69.818C88.6382 63.0772 90.3369 57.8463 93.7342 54.1254C97.1855 50.4044 101.837 48.544 107.688 48.544C113.566 48.544 118.109 50.1887 121.318 53.4783C124.526 56.7678 126.131 61.2841 126.131 67.0273V72.4065H99.8819C99.9897 75.5881 100.92 78.0688 102.673 79.8483C104.452 81.6009 106.906 82.4772 110.034 82.4772C114.698 82.4772 119.295 81.4122 123.825 79.2821V87.8564ZM155.758 65.0455C155.731 62.3222 155.03 60.2056 153.655 58.6957C152.28 57.1857 150.406 56.4307 148.033 56.4307C145.688 56.4307 143.841 57.1857 142.492 58.6957C141.144 60.1786 140.376 62.2952 140.187 65.0455H155.758ZM163.888 87.8564C160.059 89.7708 155.286 90.728 149.57 90.728C143.018 90.728 137.895 88.935 134.201 85.3488C130.534 81.7358 128.701 76.5588 128.701 69.818C128.701 63.0772 130.399 57.8463 133.797 54.1254C137.248 50.4044 141.899 48.544 147.75 48.544C153.628 48.544 158.172 50.1887 161.38 53.4783C164.589 56.7678 166.193 61.2841 166.193 67.0273V72.4065H139.944C140.052 75.5881 140.982 78.0688 142.735 79.8483C144.515 81.6009 146.968 82.4772 150.096 82.4772C154.761 82.4772 159.358 81.4122 163.888 79.2821V87.8564Z" fill="#474746"/>
<path d="M192.219 46.1577V90H180.935V46.1577H166.496V36.7745H206.658V46.1577H192.219Z" fill="#94E4A8"/>
<path d="M221.906 49.3124V90H210.824V49.3124H221.906ZM216.405 44.2568C212.361 44.2568 210.339 42.4503 210.339 38.8372C210.339 35.1972 212.347 33.3771 216.365 33.3771C220.41 33.3771 222.432 35.1837 222.432 38.7968C222.432 40.5494 221.919 41.8975 220.895 42.8413C219.87 43.785 218.374 44.2568 216.405 44.2568ZM265.999 69.5753V90H254.877V66.2184C254.877 63.2524 254.378 61.0549 253.38 59.6259C252.383 58.1699 250.846 57.4419 248.77 57.4419C245.939 57.4419 243.876 58.4799 242.582 60.5561C241.287 62.6053 240.64 66.0431 240.64 70.8696V90H229.558V49.3124H238.052L239.548 54.5298H240.155C241.234 52.6424 242.797 51.1729 244.847 50.1213C246.923 49.0698 249.296 48.544 251.965 48.544C258.086 48.544 262.211 50.5393 264.341 54.5298H265.352C266.404 52.6154 267.995 51.1459 270.125 50.1213C272.255 49.0698 274.668 48.544 277.364 48.544C282.056 48.544 285.561 49.7438 287.88 52.1436C290.199 54.5433 291.358 58.3182 291.358 63.4681V90H280.236V66.2184C280.236 63.2524 279.737 61.0549 278.739 59.6259C277.742 58.1699 276.205 57.4419 274.129 57.4419C271.378 57.4419 269.329 58.426 267.981 60.3943C266.66 62.3357 265.999 65.396 265.999 69.5753ZM323.352 65.0455C323.325 62.3222 322.624 60.2056 321.249 58.6957C319.874 57.1857 318 56.4307 315.627 56.4307C313.281 56.4307 311.434 57.1857 310.086 58.6957C308.738 60.1786 307.97 62.2952 307.781 65.0455H323.352ZM331.481 87.8564C327.653 89.7708 322.88 90.728 317.164 90.728C310.612 90.728 305.489 88.935 301.795 85.3488C298.128 81.7358 296.294 76.5588 296.294 69.818C296.294 63.0772 297.993 57.8463 301.39 54.1254C304.842 50.4044 309.493 48.544 315.344 48.544C321.222 48.544 325.765 50.1887 328.974 53.4783C332.183 56.7678 333.787 61.2841 333.787 67.0273V72.4065H307.538C307.646 75.5881 308.576 78.0688 310.329 79.8483C312.108 81.6009 314.562 82.4772 317.69 82.4772C322.354 82.4772 326.952 81.4122 331.481 79.2821V87.8564Z" fill="#474746"/>
<path d="M366.304 71.4358V90H358.982V44.7583H384.49V51.0152H366.304V65.1446H383.356V71.4358H366.304ZM408.285 62.8756C406.979 61.4088 405.157 60.6754 402.819 60.6754C400.482 60.6754 398.625 61.4088 397.25 62.8756C395.875 64.3424 395.05 66.4739 394.775 69.27H410.314C410.268 66.4739 409.592 64.3424 408.285 62.8756ZM404.16 90.6188C398.843 90.6188 394.683 89.0603 391.681 85.9434C388.678 82.8264 387.177 78.5177 387.177 73.0172C387.177 67.5167 388.564 63.1736 391.337 59.9879C394.133 56.7792 397.869 55.1749 402.544 55.1749C407.243 55.1749 410.898 56.55 413.511 59.3003C416.146 62.0047 417.464 65.7749 417.464 70.6107V74.5298H394.672C394.763 77.853 395.657 80.4085 397.353 82.1962C399.049 83.9838 401.433 84.8777 404.504 84.8777C408.24 84.8777 411.987 84.0526 415.745 82.4024V88.3155C412.445 89.851 408.583 90.6188 404.16 90.6188ZM442.089 62.8756C440.782 61.4088 438.96 60.6754 436.623 60.6754C434.285 60.6754 432.429 61.4088 431.053 62.8756C429.678 64.3424 428.853 66.4739 428.578 69.27H444.117C444.071 66.4739 443.395 64.3424 442.089 62.8756ZM437.963 90.6188C432.646 90.6188 428.486 89.0603 425.484 85.9434C422.482 82.8264 420.981 78.5177 420.981 73.0172C420.981 67.5167 422.367 63.1736 425.14 59.9879C427.936 56.7792 431.672 55.1749 436.348 55.1749C441.046 55.1749 444.702 56.55 447.314 59.3003C449.95 62.0047 451.268 65.7749 451.268 70.6107V74.5298H428.475C428.567 77.853 429.461 80.4085 431.157 82.1962C432.853 83.9838 435.236 84.8777 438.307 84.8777C442.043 84.8777 445.79 84.0526 449.549 82.4024V88.3155C446.249 89.851 442.387 90.6188 437.963 90.6188ZM478.608 85.5308C476.27 88.9228 472.913 90.6188 468.535 90.6188C464.158 90.6188 460.766 89.0718 458.359 85.9778C455.976 82.8608 454.784 78.5177 454.784 72.9484C454.784 67.3563 455.987 62.9902 458.394 59.8504C460.823 56.7334 464.238 55.1749 468.638 55.1749C473.039 55.1749 476.408 56.8365 478.746 60.1598H479.124C478.78 57.6845 478.608 55.7364 478.608 54.3155V41.8706H485.896V90H480.224L478.952 85.5308H478.608ZM470.254 61.088C467.687 61.088 465.716 62.1308 464.341 64.2164C462.966 66.2791 462.278 69.2241 462.278 73.0516C462.278 76.879 462.955 79.7897 464.307 81.7836C465.659 83.7546 467.745 84.7401 470.564 84.7401C473.383 84.7401 475.468 83.9036 476.82 82.2305C478.196 80.5345 478.906 77.8072 478.952 74.0485V73.0172C478.952 68.7314 478.241 65.6717 476.82 63.8382C475.399 62.0047 473.211 61.088 470.254 61.088Z" fill="#474746"/>
</g>
<defs>
<clipPath id="clip0_51_1273">
<rect width="600" height="120" fill="white"/>
</clipPath>
</defs>
</svg>
