<svg width="105" height="13" viewBox="0 0 105 13" fill="none" xmlns="http://www.w3.org/2000/svg">
<path d="M0.000103593 12.762V0.990023H7.1101V2.73602H2.0881V6.08402H6.3721V7.84802H2.0881V12.762H0.000103593ZM8.18729 12.762V3.92402H9.89729L10.0413 5.49002H10.1133C10.4133 4.91402 10.7853 4.47602 11.2293 4.17602C11.6733 3.86402 12.1353 3.70802 12.6153 3.70802C12.8433 3.70802 13.0353 3.72602 13.1913 3.76202C13.3473 3.78602 13.4913 3.82802 13.6233 3.88802L13.2093 5.65202C13.0653 5.61602 12.9333 5.59202 12.8133 5.58002C12.6933 5.55602 12.5373 5.54402 12.3453 5.54402C11.9973 5.54402 11.6313 5.68202 11.2473 5.95802C10.8633 6.22202 10.5333 6.69002 10.2573 7.36202V12.762H8.18729ZM18.0669 12.978C17.2509 12.978 16.5129 12.798 15.8529 12.438C15.1929 12.066 14.6709 11.538 14.2869 10.854C13.9029 10.158 13.7109 9.32402 13.7109 8.35202C13.7109 7.39202 13.9029 6.57002 14.2869 5.88602C14.6829 5.19002 15.1929 4.65602 15.8169 4.28402C16.4409 3.90002 17.0949 3.70802 17.7789 3.70802C18.5709 3.70802 19.2369 3.88802 19.7769 4.24802C20.3289 4.59602 20.7429 5.08802 21.0189 5.72402C21.2949 6.34802 21.4329 7.07402 21.4329 7.90202C21.4329 8.09402 21.4209 8.28602 21.3969 8.47802C21.3849 8.65802 21.3669 8.80202 21.3429 8.91002H15.2949L15.2589 7.50602H19.6509C19.6509 6.81002 19.4949 6.27002 19.1829 5.88602C18.8829 5.50202 18.4329 5.31002 17.8329 5.31002C17.4729 5.31002 17.1249 5.41202 16.7889 5.61602C16.4529 5.80802 16.1709 6.12602 15.9429 6.57002C15.7269 7.01402 15.6249 7.60202 15.6369 8.33402C15.6609 9.05402 15.7989 9.64202 16.0509 10.098C16.3029 10.542 16.6269 10.866 17.0229 11.07C17.4309 11.274 17.8689 11.376 18.3369 11.376C18.7209 11.376 19.0809 11.322 19.4169 11.214C19.7649 11.106 20.0949 10.956 20.4069 10.764L21.0909 12.024C20.6829 12.312 20.2149 12.546 19.6869 12.726C19.1709 12.894 18.6309 12.978 18.0669 12.978ZM26.7505 12.978C25.9345 12.978 25.1965 12.798 24.5365 12.438C23.8765 12.066 23.3545 11.538 22.9705 10.854C22.5865 10.158 22.3945 9.32402 22.3945 8.35202C22.3945 7.39202 22.5865 6.57002 22.9705 5.88602C23.3665 5.19002 23.8765 4.65602 24.5005 4.28402C25.1245 3.90002 25.7785 3.70802 26.4625 3.70802C27.2545 3.70802 27.9205 3.88802 28.4605 4.24802C29.0125 4.59602 29.4265 5.08802 29.7025 5.72402C29.9785 6.34802 30.1165 7.07402 30.1165 7.90202C30.1165 8.09402 30.1045 8.28602 30.0805 8.47802C30.0685 8.65802 30.0505 8.80202 30.0265 8.91002H23.9785L23.9425 7.50602H28.3345C28.3345 6.81002 28.1785 6.27002 27.8665 5.88602C27.5665 5.50202 27.1165 5.31002 26.5165 5.31002C26.1565 5.31002 25.8085 5.41202 25.4725 5.61602C25.1365 5.80802 24.8545 6.12602 24.6265 6.57002C24.4105 7.01402 24.3085 7.60202 24.3205 8.33402C24.3445 9.05402 24.4825 9.64202 24.7345 10.098C24.9865 10.542 25.3105 10.866 25.7065 11.07C26.1145 11.274 26.5525 11.376 27.0205 11.376C27.4045 11.376 27.7645 11.322 28.1005 11.214C28.4485 11.106 28.7785 10.956 29.0905 10.764L29.7745 12.024C29.3665 12.312 28.8985 12.546 28.3705 12.726C27.8545 12.894 27.3145 12.978 26.7505 12.978ZM40.5662 12.762V3.92402H42.6362V12.762H40.5662ZM41.6102 2.37602C41.2382 2.37602 40.9382 2.26802 40.7102 2.05202C40.4822 1.83602 40.3682 1.54802 40.3682 1.18802C40.3682 0.840023 40.4822 0.558023 40.7102 0.342023C40.9382 0.114023 41.2382 2.30074e-05 41.6102 2.30074e-05C41.9822 2.30074e-05 42.2822 0.114023 42.5102 0.342023C42.7382 0.558023 42.8522 0.840023 42.8522 1.18802C42.8522 1.54802 42.7382 1.83602 42.5102 2.05202C42.2822 2.26802 41.9822 2.37602 41.6102 2.37602ZM44.8201 12.762V3.92402H46.5301L46.6741 5.13002H46.7461C47.1181 4.73402 47.5261 4.39802 47.9701 4.12202C48.4141 3.84602 48.9061 3.70802 49.4461 3.70802C50.1061 3.70802 50.6281 3.84602 51.0121 4.12202C51.3961 4.39802 51.6901 4.78802 51.8941 5.29202C52.3141 4.83602 52.7521 4.45802 53.2081 4.15802C53.6641 3.85802 54.1741 3.70802 54.7381 3.70802C55.6741 3.70802 56.3581 4.01402 56.7901 4.62602C57.2341 5.23802 57.4561 6.10202 57.4561 7.21802V12.762H55.3861V7.48802C55.3861 6.75602 55.2781 6.24002 55.0621 5.94002C54.8461 5.62802 54.5041 5.47202 54.0361 5.47202C53.7601 5.47202 53.4661 5.56202 53.1541 5.74202C52.8541 5.92202 52.5301 6.20402 52.1821 6.58802V12.762H50.1121V7.48802C50.1121 6.75602 49.9981 6.24002 49.7701 5.94002C49.5541 5.62802 49.2121 5.47202 48.7441 5.47202C48.1921 5.47202 47.5741 5.84402 46.8901 6.58802V12.762H44.8201ZM63.3306 12.978C62.5146 12.978 61.7766 12.798 61.1166 12.438C60.4566 12.066 59.9346 11.538 59.5506 10.854C59.1666 10.158 58.9746 9.32402 58.9746 8.35202C58.9746 7.39202 59.1666 6.57002 59.5506 5.88602C59.9466 5.19002 60.4566 4.65602 61.0806 4.28402C61.7046 3.90002 62.3586 3.70802 63.0426 3.70802C63.8346 3.70802 64.5006 3.88802 65.0406 4.24802C65.5926 4.59602 66.0066 5.08802 66.2826 5.72402C66.5586 6.34802 66.6966 7.07402 66.6966 7.90202C66.6966 8.09402 66.6846 8.28602 66.6606 8.47802C66.6486 8.65802 66.6306 8.80202 66.6066 8.91002H60.5586L60.5226 7.50602H64.9146C64.9146 6.81002 64.7586 6.27002 64.4466 5.88602C64.1466 5.50202 63.6966 5.31002 63.0966 5.31002C62.7366 5.31002 62.3886 5.41202 62.0526 5.61602C61.7166 5.80802 61.4346 6.12602 61.2066 6.57002C60.9906 7.01402 60.8886 7.60202 60.9006 8.33402C60.9246 9.05402 61.0626 9.64202 61.3146 10.098C61.5666 10.542 61.8906 10.866 62.2866 11.07C62.6946 11.274 63.1326 11.376 63.6006 11.376C63.9846 11.376 64.3446 11.322 64.6806 11.214C65.0286 11.106 65.3586 10.956 65.6706 10.764L66.3546 12.024C65.9466 12.312 65.4786 12.546 64.9506 12.726C64.4346 12.894 63.8946 12.978 63.3306 12.978ZM71.5782 12.762V0.990023H78.6882V2.73602H73.6662V6.08402H77.9502V7.84802H73.6662V12.762H71.5782ZM83.6157 12.978C82.7997 12.978 82.0617 12.798 81.4017 12.438C80.7417 12.066 80.2197 11.538 79.8357 10.854C79.4517 10.158 79.2597 9.32402 79.2597 8.35202C79.2597 7.39202 79.4517 6.57002 79.8357 5.88602C80.2317 5.19002 80.7417 4.65602 81.3657 4.28402C81.9897 3.90002 82.6437 3.70802 83.3277 3.70802C84.1197 3.70802 84.7857 3.88802 85.3257 4.24802C85.8777 4.59602 86.2917 5.08802 86.5677 5.72402C86.8437 6.34802 86.9817 7.07402 86.9817 7.90202C86.9817 8.09402 86.9697 8.28602 86.9457 8.47802C86.9337 8.65802 86.9157 8.80202 86.8917 8.91002H80.8437L80.8077 7.50602H85.1997C85.1997 6.81002 85.0437 6.27002 84.7317 5.88602C84.4317 5.50202 83.9817 5.31002 83.3817 5.31002C83.0217 5.31002 82.6737 5.41202 82.3377 5.61602C82.0017 5.80802 81.7197 6.12602 81.4917 6.57002C81.2757 7.01402 81.1737 7.60202 81.1857 8.33402C81.2097 9.05402 81.3477 9.64202 81.5997 10.098C81.8517 10.542 82.1757 10.866 82.5717 11.07C82.9797 11.274 83.4177 11.376 83.8857 11.376C84.2697 11.376 84.6297 11.322 84.9657 11.214C85.3137 11.106 85.6437 10.956 85.9557 10.764L86.6397 12.024C86.2317 12.312 85.7637 12.546 85.2357 12.726C84.7197 12.894 84.1797 12.978 83.6157 12.978ZM92.2993 12.978C91.4833 12.978 90.7453 12.798 90.0853 12.438C89.4253 12.066 88.9033 11.538 88.5193 10.854C88.1353 10.158 87.9433 9.32402 87.9433 8.35202C87.9433 7.39202 88.1353 6.57002 88.5193 5.88602C88.9153 5.19002 89.4253 4.65602 90.0493 4.28402C90.6733 3.90002 91.3273 3.70802 92.0113 3.70802C92.8033 3.70802 93.4693 3.88802 94.0093 4.24802C94.5613 4.59602 94.9753 5.08802 95.2513 5.72402C95.5273 6.34802 95.6653 7.07402 95.6653 7.90202C95.6653 8.09402 95.6533 8.28602 95.6293 8.47802C95.6173 8.65802 95.5993 8.80202 95.5753 8.91002H89.5273L89.4913 7.50602H93.8833C93.8833 6.81002 93.7273 6.27002 93.4153 5.88602C93.1153 5.50202 92.6653 5.31002 92.0653 5.31002C91.7053 5.31002 91.3573 5.41202 91.0213 5.61602C90.6853 5.80802 90.4033 6.12602 90.1753 6.57002C89.9593 7.01402 89.8573 7.60202 89.8693 8.33402C89.8933 9.05402 90.0313 9.64202 90.2833 10.098C90.5353 10.542 90.8593 10.866 91.2553 11.07C91.6633 11.274 92.1013 11.376 92.5693 11.376C92.9533 11.376 93.3133 11.322 93.6493 11.214C93.9973 11.106 94.3273 10.956 94.6393 10.764L95.3233 12.024C94.9153 12.312 94.4473 12.546 93.9193 12.726C93.4033 12.894 92.8633 12.978 92.2993 12.978ZM100.299 12.978C99.1949 12.978 98.3129 12.57 97.6529 11.754C96.9929 10.938 96.6629 9.80402 96.6629 8.35202C96.6629 7.39202 96.8369 6.56402 97.1849 5.86802C97.5449 5.17202 98.0129 4.63802 98.5889 4.26602C99.1649 3.89402 99.7709 3.70802 100.407 3.70802C100.911 3.70802 101.337 3.79802 101.685 3.97802C102.045 4.14602 102.393 4.38002 102.729 4.68002L102.639 3.25802V0.0540234H104.727V12.762H103.035L102.873 11.808H102.801C102.477 12.132 102.093 12.408 101.649 12.636C101.217 12.864 100.767 12.978 100.299 12.978ZM100.803 11.268C101.151 11.268 101.475 11.19 101.775 11.034C102.075 10.878 102.363 10.62 102.639 10.26V6.15602C102.339 5.88002 102.039 5.68802 101.739 5.58002C101.451 5.47202 101.157 5.41802 100.857 5.41802C100.473 5.41802 100.125 5.53202 99.8129 5.76002C99.5129 5.98802 99.2669 6.31802 99.0749 6.75002C98.8829 7.18202 98.7869 7.71002 98.7869 8.33402C98.7869 9.28202 98.9609 10.008 99.3089 10.512C99.6689 11.016 100.167 11.268 100.803 11.268Z" fill="white"/>
<path d="M33.7355 12.762V2.73602H30.3515V0.990023H39.2255V2.73602H35.8235V12.762H33.7355Z" fill="#94E4A8"/>
</svg>
