<svg width="32" height="30" viewBox="0 0 32 30" fill="none" xmlns="http://www.w3.org/2000/svg">
<path d="M1.48133 30C1.06178 30 0.709926 29.7996 0.425778 29.3988C0.141926 28.9983 0 28.5019 0 27.9094C0 27.3169 0.141926 26.8227 0.425778 26.4269C0.709926 26.031 1.06178 25.8331 1.48133 25.8331H30.5187C30.9382 25.8331 31.2901 26.0335 31.5742 26.4344C31.8581 26.8352 32 27.3317 32 27.9237C32 28.5162 31.8581 29.0104 31.5742 29.4062C31.2901 29.8021 30.9382 30 30.5187 30H1.48133ZM1.48133 17.0831C1.06178 17.0831 0.709926 16.8829 0.425778 16.4825C0.141926 16.0817 0 15.585 0 14.9925C0 14.4004 0.141926 13.9065 0.425778 13.5106C0.709926 13.1148 1.06178 12.9169 1.48133 12.9169H30.5187C30.9382 12.9169 31.2901 13.1171 31.5742 13.5175C31.8581 13.9183 32 14.415 32 15.0075C32 15.5996 31.8581 16.0935 31.5742 16.4894C31.2901 16.8852 30.9382 17.0831 30.5187 17.0831H1.48133ZM1.48133 4.16687C1.06178 4.16687 0.709926 3.96646 0.425778 3.56562C0.141926 3.16479 0 2.66833 0 2.07625C0 1.48375 0.141926 0.989583 0.425778 0.59375C0.709926 0.197917 1.06178 0 1.48133 0H30.5187C30.9382 0 31.2901 0.200416 31.5742 0.60125C31.8581 1.00167 32 1.49813 32 2.09063C32 2.68313 31.8581 3.17729 31.5742 3.57312C31.2901 3.96896 30.9382 4.16687 30.5187 4.16687H1.48133Z" fill="#889D8C"/>
</svg>
