<svg width="27" height="27" viewBox="0 0 27 27" fill="none" xmlns="http://www.w3.org/2000/svg">
<path d="M14.3981 0.889404C15.8668 0.893321 16.6123 0.901154 17.2559 0.919431L17.5092 0.92857C17.8016 0.939014 18.0901 0.95207 18.4387 0.967736C19.8278 1.03301 20.7756 1.25234 21.6072 1.57481C22.4689 1.90641 23.1948 2.35551 23.9206 3.08008C24.5847 3.73249 25.0985 4.522 25.4259 5.39348C25.7484 6.2251 25.9677 7.17291 26.033 8.5633C26.0486 8.91057 26.0617 9.19909 26.0721 9.49283L26.08 9.74611C26.0996 10.3884 26.1074 11.1339 26.11 12.6026L26.1113 13.5765V15.2868C26.1145 16.239 26.1045 17.1913 26.0813 18.1433L26.0734 18.3965C26.063 18.6903 26.0499 18.9788 26.0343 19.3261C25.969 20.7165 25.7471 21.663 25.4259 22.4959C25.0985 23.3674 24.5847 24.1569 23.9206 24.8093C23.2682 25.4734 22.4787 25.9871 21.6072 26.3146C20.7756 26.637 19.8278 26.8564 18.4387 26.9216L17.5092 26.9608L17.2559 26.9686C16.6123 26.9869 15.8668 26.996 14.3981 26.9987L13.4242 27H11.7152C10.7625 27.0033 9.80986 26.9933 8.85744 26.9699L8.60417 26.9621C8.29425 26.9504 7.9844 26.9369 7.67464 26.9216C6.28555 26.8564 5.33774 26.637 4.50481 26.3146C3.6338 25.9869 2.84476 25.4732 2.19272 24.8093C1.52814 24.157 1.01397 23.3675 0.686145 22.4959C0.363679 21.6643 0.144351 20.7165 0.0790742 19.3261L0.0399084 18.3965L0.0333809 18.1433C0.00931486 17.1913 -0.00156571 16.239 0.00074258 15.2868V12.6026C-0.00287098 11.6503 0.0067039 10.6981 0.0294643 9.74611L0.0386029 9.49283C0.0490472 9.19909 0.0621024 8.91057 0.0777687 8.5633C0.143045 7.17291 0.362374 6.2264 0.684839 5.39348C1.01343 4.52164 1.5285 3.73211 2.19403 3.08008C2.84569 2.41628 3.63427 1.90259 4.50481 1.57481C5.33774 1.25234 6.28425 1.03301 7.67464 0.967736C8.02191 0.95207 8.31173 0.939014 8.60417 0.92857L8.85744 0.920737C9.80943 0.897541 10.7617 0.887531 11.7139 0.89071L14.3981 0.889404ZM13.056 7.41704C11.3248 7.41704 9.66445 8.10478 8.44028 9.32895C7.21611 10.5531 6.52838 12.2134 6.52838 13.9447C6.52838 15.6759 7.21611 17.3363 8.44028 18.5604C9.66445 19.7846 11.3248 20.4723 13.056 20.4723C14.7873 20.4723 16.4476 19.7846 17.6718 18.5604C18.8959 17.3363 19.5837 15.6759 19.5837 13.9447C19.5837 12.2134 18.8959 10.5531 17.6718 9.32895C16.4476 8.10478 14.7873 7.41704 13.056 7.41704ZM13.056 10.0281C13.5704 10.028 14.0797 10.1292 14.5549 10.326C15.0301 10.5227 15.4619 10.8112 15.8257 11.1748C16.1894 11.5384 16.478 11.9701 16.6749 12.4453C16.8718 12.9204 16.9732 13.4297 16.9733 13.944C16.9733 14.4584 16.8721 14.9677 16.6754 15.4429C16.4786 15.9181 16.1902 16.3499 15.8266 16.7137C15.463 17.0774 15.0312 17.366 14.5561 17.5629C14.0809 17.7598 13.5717 17.8612 13.0573 17.8613C12.0186 17.8613 11.0224 17.4486 10.2879 16.7141C9.55338 15.9796 9.14074 14.9834 9.14074 13.9447C9.14074 12.9059 9.55338 11.9097 10.2879 11.1752C11.0224 10.4407 12.0186 10.0281 13.0573 10.0281M19.9113 5.45875C19.4785 5.45875 19.0635 5.63068 18.7574 5.93673C18.4514 6.24277 18.2794 6.65785 18.2794 7.09066C18.2794 7.52347 18.4514 7.93855 18.7574 8.2446C19.0635 8.55064 19.4785 8.72257 19.9113 8.72257C20.3442 8.72257 20.7592 8.55064 21.0653 8.2446C21.3713 7.93855 21.5433 7.52347 21.5433 7.09066C21.5433 6.65785 21.3713 6.24277 21.0653 5.93673C20.7592 5.63068 20.3442 5.45875 19.9113 5.45875Z" fill="#94E4A8"/>
</svg>
