<svg width="42" height="42" viewBox="0 0 42 42" fill="none" xmlns="http://www.w3.org/2000/svg">
<path d="M15.3955 30.6321C11.0927 30.6321 7.45105 29.1408 4.47039 26.1581C1.49013 23.1759 0 19.5619 0 15.3163C0 11.0707 1.49132 7.4566 4.47396 4.47396C7.4562 1.49132 11.0769 0 15.336 0C19.5947 0 23.2086 1.49132 26.1778 4.47396C29.1473 7.4566 30.6321 11.0727 30.6321 15.3223C30.6321 17.0376 30.3543 18.6823 29.7988 20.2563C29.2433 21.83 28.4365 23.2782 27.3782 24.6011L41.4245 38.5676C41.8082 38.9394 42 39.4128 42 39.9877C42 40.5622 41.8082 41.0412 41.4245 41.4245C41.0408 41.8082 40.5616 42 39.9871 42C39.4126 42 38.9394 41.8082 38.5676 41.4245L24.5613 27.4181C23.3709 28.4232 21.9893 29.2102 20.4164 29.7792C18.8436 30.3478 17.1699 30.6321 15.3955 30.6321ZM15.3556 26.664C18.497 26.664 21.1669 25.5564 23.3655 23.3411C25.5645 21.1259 26.664 18.4509 26.664 15.3163C26.664 12.1817 25.5645 9.5066 23.3655 7.29094C21.1669 5.07569 18.497 3.96806 15.3556 3.96806C12.1924 3.96806 9.50362 5.07569 7.28916 7.29094C5.07509 9.5066 3.96806 12.1817 3.96806 15.3163C3.96806 18.4509 5.07509 21.1259 7.28916 23.3411C9.50362 25.5564 12.1924 26.664 15.3556 26.664Z" fill="#889D8C"/>
</svg>
