<svg width="32" height="32" viewBox="0 0 32 32" fill="none" xmlns="http://www.w3.org/2000/svg">
<path d="M26.8444 32C25.4124 32 24.1951 31.5489 23.1924 30.6468C22.1901 29.7444 21.6889 28.6488 21.6889 27.36C21.6889 27.1645 21.753 26.7379 21.8813 26.08L8.85911 19.2268C8.3797 19.6684 7.82533 20.0143 7.196 20.2644C6.56667 20.5148 5.88652 20.64 5.15556 20.64C3.72356 20.64 2.50622 20.1889 1.50356 19.2868C0.501185 18.3844 0 17.2888 0 16C0 14.7112 0.501185 13.6156 1.50356 12.7132C2.50622 11.8111 3.72356 11.36 5.15556 11.36C5.86667 11.36 6.53333 11.4804 7.15556 11.7212C7.77778 11.962 8.32593 12.2949 8.8 12.72L21.8813 5.92C21.8221 5.71547 21.7753 5.5088 21.7409 5.3C21.7062 5.0912 21.6889 4.8712 21.6889 4.64C21.6889 3.3512 22.1901 2.2556 23.1924 1.3532C24.1951 0.451067 25.4124 0 26.8444 0C28.2764 0 29.4938 0.451067 30.4964 1.3532C31.4988 2.2556 32 3.3512 32 4.64C32 5.9288 31.4988 7.0244 30.4964 7.9268C29.4938 8.82893 28.2764 9.28 26.8444 9.28C26.1476 9.28 25.4944 9.16227 24.8849 8.9268C24.2751 8.69107 23.7332 8.3732 23.2591 7.9732L10.0889 14.6668C10.168 14.8711 10.2247 15.0865 10.2591 15.3132C10.2938 15.5399 10.3111 15.7644 10.3111 15.9868C10.3111 16.2089 10.2988 16.4156 10.2742 16.6068C10.2493 16.7977 10.2073 16.9955 10.148 17.2L23.2889 24C23.763 23.6 24.3022 23.2867 24.9067 23.06C25.5108 22.8333 26.1582 22.72 26.8489 22.72C28.288 22.72 29.5062 23.1711 30.5036 24.0732C31.5012 24.9756 32 26.0712 32 27.36C32 28.6488 31.4988 29.7444 30.4964 30.6468C29.4938 31.5489 28.2764 32 26.8444 32ZM26.8453 29.3332C27.467 29.3332 27.9877 29.144 28.4076 28.7656C28.8271 28.3872 29.0369 27.9184 29.0369 27.3592C29.0369 26.7997 28.8267 26.3311 28.4062 25.9532C27.9858 25.5756 27.4649 25.3868 26.8436 25.3868C26.2219 25.3868 25.7012 25.576 25.2813 25.9544C24.8618 26.3328 24.652 26.8016 24.652 27.3608C24.652 27.9203 24.8622 28.3889 25.2827 28.7668C25.7031 29.1444 26.224 29.3332 26.8453 29.3332ZM5.15644 17.9732C5.77807 17.9732 6.29881 17.784 6.71867 17.4056C7.13822 17.0272 7.348 16.5584 7.348 15.9992C7.348 15.4397 7.13778 14.9711 6.71733 14.5932C6.29689 14.2156 5.776 14.0268 5.15467 14.0268C4.53304 14.0268 4.0123 14.216 3.59244 14.5944C3.17289 14.9728 2.96311 15.4416 2.96311 16.0008C2.96311 16.5603 3.17333 17.0289 3.59378 17.4068C4.01422 17.7844 4.53511 17.9732 5.15644 17.9732ZM26.8453 6.6132C27.467 6.6132 27.9877 6.424 28.4076 6.0456C28.8271 5.6672 29.0369 5.1984 29.0369 4.6392C29.0369 4.07973 28.8267 3.61107 28.4062 3.2332C27.9858 2.8556 27.4649 2.6668 26.8436 2.6668C26.2219 2.6668 25.7012 2.856 25.2813 3.2344C24.8618 3.6128 24.652 4.0816 24.652 4.6408C24.652 5.20027 24.8622 5.66893 25.2827 6.0468C25.7031 6.4244 26.224 6.6132 26.8453 6.6132Z" fill="#94E4A8"/>
</svg>
