<svg width="32" height="32" viewBox="0 0 32 32" fill="none" xmlns="http://www.w3.org/2000/svg">
<path d="M3.019 32C2.20391 32 1.4969 31.7062 0.897958 31.1187C0.299319 30.5308 0 29.8369 0 29.0369V2.96311C0 2.16311 0.299319 1.46919 0.897958 0.881334C1.4969 0.293779 2.20391 0 3.019 0H14.7622C15.19 0 15.5485 0.142518 15.8377 0.427555C16.1269 0.712296 16.2715 1.06533 16.2715 1.48667C16.2715 1.908 16.1269 2.25941 15.8377 2.54089C15.5485 2.82237 15.19 2.96311 14.7622 2.96311H3.019V29.0369H14.7622C15.19 29.0369 15.5485 29.1794 15.8377 29.4644C16.1269 29.7495 16.2715 30.1025 16.2715 30.5236C16.2715 30.9449 16.1269 31.2963 15.8377 31.5778C15.5485 31.8593 15.19 32 14.7622 32H3.019ZM26.8224 17.4813H12.3771C11.9497 17.4813 11.5912 17.339 11.3017 17.0542C11.0125 16.7692 10.8679 16.416 10.8679 15.9947C10.8679 15.5736 11.0125 15.2224 11.3017 14.9409C11.5912 14.6594 11.9497 14.5187 12.3771 14.5187H26.7621L23.1848 11.0076C22.8929 10.721 22.752 10.3803 22.7623 9.98533C22.7723 9.59007 22.9232 9.2443 23.2151 8.948C23.5068 8.6517 23.8639 8.50118 24.2865 8.49644C24.7092 8.49141 25.0714 8.63704 25.3733 8.93333L31.5472 14.9924C31.8491 15.2887 32 15.6345 32 16.0298C32 16.4247 31.8491 16.7704 31.5472 17.0667L25.4037 23.0964C25.1057 23.3927 24.752 23.5335 24.3427 23.5187C23.933 23.5039 23.5733 23.3483 23.2636 23.052C22.9795 22.7557 22.84 22.4025 22.8452 21.9924C22.8503 21.5827 22.9987 21.2345 23.2903 20.948L26.8224 17.4813Z" fill="#889D8C"/>
</svg>
