<svg width="40" height="30" viewBox="0 0 40 30" fill="none" xmlns="http://www.w3.org/2000/svg">
<path d="M27.86 1C27.2731 1 26.7725 1.0875 26.3962 1.18563C25.7856 1.34438 25.4525 1.91 25.44 2.47938L25.0375 21.1906V21.1969C25.0375 22.43 24.0506 23.4231 22.8406 23.4231C21.6306 23.4231 20.6437 22.4294 20.6437 21.1969C20.6437 20.5419 20.8788 20.0488 21.2431 19.6938C21.6119 19.3338 22.1306 19.1019 22.7119 19.0125C23.1594 18.9438 23.575 18.5875 23.5994 18.0769L23.7762 14.25C23.8006 13.7219 23.375 13.2538 22.8181 13.2925C18.6388 13.5831 15 16.5763 15 21.1969C15 25.5719 18.5069 29.125 22.8406 29.125C27.1744 29.125 30.6819 25.5725 30.6819 21.1969L30.4775 11.6938C32.4363 12.9813 35.2481 13.7431 37.8463 13.8738C38.43 13.9031 39.0969 13.6356 39.2625 12.9456C39.3288 12.6713 39.375 12.3238 39.375 11.8894C39.375 11.455 39.3288 11.1081 39.2625 10.8331C39.0969 10.1431 38.4269 9.90188 37.8994 9.84125C36.0894 9.63 34.3144 8.67125 32.9269 7.3075C31.5394 5.94375 30.5619 4.1975 30.3206 2.44063C30.2475 1.91125 29.9375 1.34563 29.3225 1.18563C28.8449 1.06193 28.3534 0.999553 27.86 1Z" fill="#94E4A8"/>
</svg>
