<svg width="33" height="27" viewBox="0 0 33 27" fill="none" xmlns="http://www.w3.org/2000/svg">
<path fill-rule="evenodd" clip-rule="evenodd" d="M14.6666 0C15.9206 0 17.2069 0.0322667 18.4535 0.0850666L19.9261 0.155466L21.3355 0.239066L22.6555 0.328532L23.8611 0.422399C25.1697 0.521973 26.4011 1.0801 27.3385 1.99848C28.276 2.91685 28.8592 4.13657 28.9857 5.44279L29.0443 6.06612L29.1543 7.40078C29.257 8.78384 29.3333 10.2916 29.3333 11.7333C29.3333 13.175 29.257 14.6828 29.1543 16.0658L29.0443 17.4005L28.9857 18.0238C28.8592 19.3303 28.2757 20.5502 27.338 21.4686C26.4002 22.387 25.1685 22.945 23.8597 23.0442L22.657 23.1366L21.337 23.2275L19.9261 23.3111L18.4535 23.3815C17.192 23.4362 15.9294 23.4645 14.6666 23.4666C13.4039 23.4645 12.1413 23.4362 10.8797 23.3815L9.40717 23.3111L7.99771 23.2275L6.67771 23.1366L5.47212 23.0442C4.16358 22.9446 2.93215 22.3865 1.99473 21.4681C1.0573 20.5497 0.474012 19.33 0.347599 18.0238L0.288933 17.4005L0.178933 16.0658C0.0672212 14.6243 0.00753812 13.1792 0 11.7333C0 10.2916 0.0762664 8.78384 0.178933 7.40078L0.288933 6.06612L0.347599 5.44279C0.473963 4.1368 1.05704 2.91727 1.99417 1.99892C2.93129 1.08058 4.16238 0.522303 5.47065 0.422399L6.67478 0.328532L7.99478 0.239066L9.40571 0.155466L10.8782 0.0850666C12.1403 0.0303998 13.4034 0.00203805 14.6666 0ZM11.7333 8.17664V15.29C11.7333 15.9676 12.4666 16.39 13.0533 16.0526L19.2133 12.496C19.3473 12.4188 19.4587 12.3077 19.5361 12.1738C19.6135 12.0399 19.6543 11.888 19.6543 11.7333C19.6543 11.5786 19.6135 11.4267 19.5361 11.2928C19.4587 11.1589 19.3473 11.0478 19.2133 10.9706L13.0533 7.41545C12.9195 7.33819 12.7677 7.29752 12.6132 7.29755C12.4586 7.29757 12.3068 7.33828 12.1731 7.41559C12.0393 7.49289 11.9282 7.60406 11.851 7.73792C11.7738 7.87177 11.7332 8.02359 11.7333 8.17811V8.17664Z" fill="#94E4A8"/>
</svg>
